<svg width="17" height="17" viewBox="0 0 17 17" fill="none" xmlns="http://www.w3.org/2000/svg">
<path d="M15.1205 12.4375L12.1242 2.91698C12.1177 2.89048 11.2951 0.300003 8.39673 0.300003C5.49179 0.300003 4.6758 2.89048 4.66927 2.91698L1.67294 12.4375H3.5791L4.5126 9.44949H12.2809L13.2144 12.4375H15.1205ZM5.1654 7.50166L6.39918 3.51988C6.60807 2.92361 6.92794 2.0292 8.40326 2.0292C8.42284 2.0292 8.93855 2.02257 9.23883 2.15508C10.0157 2.42009 10.2507 3.08261 10.4008 3.51325L11.6346 7.49503H5.1654V7.50166Z" fill="black"/>
<path d="M0.399994 16.3H16.4L16.0344 15.1273H0.772088L0.399994 16.3Z" fill="black"/>
</svg>
