<svg height='100px' width='100px'  fill="#000000" xmlns="http://www.w3.org/2000/svg" xmlns:xlink="http://www.w3.org/1999/xlink" version="1.1" x="0px" y="0px" viewBox="0 0 60 60" style="enable-background:new 0 0 60 60;" xml:space="preserve"><path d="M46.9648438,19.7363281c-0.6328125,0-1.2509766,0.0820313-1.8476563,0.2451172  c-0.5693359-3.7685547-3.8291016-6.6660156-7.7539063-6.6660156c-3.3269043,0-6.2658691,2.144104-7.3720703,5.1803589  c-1.7007446-1.0272827-3.6889648-1.6246948-5.8164063-1.6246948c-6.2265625,0-11.2919922,5.0654297-11.2919922,11.2910156  c0,0.6611328,0.0585938,1.3193359,0.1738281,1.9697266C9.0683594,30.7470703,6,34.2089844,6,38.359375  c0,4.5908203,3.7353516,8.3251953,8.3261719,8.3251953h24.2910156c5.5566406,0,10.078125-4.5205078,10.078125-10.0771484  c0-1.017395-0.1546631-1.9987793-0.4364014-2.925293C51.5211182,33.0722046,54,30.2078857,54,26.7714844  C54,22.8925781,50.84375,19.7363281,46.9648438,19.7363281z M38.6171875,44.6845703H14.3261719  C10.8378906,44.6845703,8,41.8466797,8,38.359375c0-3.4716797,2.8242188-6.3085938,6.296875-6.3242188l1.3251953-0.0058594  l-0.3701172-1.2724609c-0.2451172-0.8457031-0.3691406-1.71875-0.3691406-2.5947266  c0-5.1230469,4.1679688-9.2910156,9.2919922-9.2910156c5.1230469,0,9.2910156,4.1679688,9.2910156,9.2910156l-0.0615234,2.0478516  l1.5117188-0.78125c1.1523438-0.5966797,2.3974609-0.8984375,3.7011719-0.8984375  c4.4541016,0,8.078125,3.6230469,8.078125,8.0771484S43.0712891,44.6845703,38.6171875,44.6845703z M47.4465942,31.7579346  c-1.717041-3.112854-5.0301514-5.2276611-8.8294067-5.2276611c-1.0898438,0-2.1757813,0.1787109-3.2050781,0.5234375  c-0.2822266-2.8832397-1.65625-5.449585-3.6990967-7.2858887c0.633606-2.5670166,2.961792-4.4523926,5.6502686-4.4523926  c3.2207031,0,5.8417969,2.6210938,5.8417969,5.8417969l-0.0654297,1.9248047l1.5185547-0.7851563  c0.71875-0.3720703,1.4951172-0.5605469,2.3066406-0.5605469C49.7412109,21.7363281,52,23.9951172,52,26.7714844  C52,29.3828735,49.9943237,31.5112305,47.4465942,31.7579346z"></path></svg>