<svg height='100px' width='100px'  fill="#000000" xmlns="http://www.w3.org/2000/svg" xmlns:xlink="http://www.w3.org/1999/xlink" version="1.1" x="0px" y="0px" viewBox="0 0 60 60" style="enable-background:new 0 0 60 60;" xml:space="preserve"><path d="M13.3447266,41.2539063v-2C10.3974609,39.2539063,8,36.8564453,8,33.9091797  c0-2.5224609,1.7900391-4.7231445,4.2548828-5.2329102l1.1474609-0.2373047l-0.4140625-1.0957031  c-0.2324219-0.6152344-0.3505859-1.2504883-0.3505859-1.8881836c0-2.9472656,2.3974609-5.3452148,5.3447266-5.3452148  c0.6201172,0,1.2412109,0.112793,1.8447266,0.3354492l0.8466797,0.3120117l0.3964844-0.8100586  c2.0078125-4.0917969,6.0830078-6.6337891,10.6357422-6.6337891c5.8671875,0,10.90625,4.375,11.7207031,10.1772461  l0.1240234,0.8808594l0.9951172-0.0263672C48.65625,24.3452148,52,27.6889648,52,31.7993164s-3.34375,7.4545898-7.4541016,7.4545898  v2C49.7587891,41.2539063,54,37.0126953,54,31.7993164c0-4.9716797-3.8583984-9.0595703-8.7373047-9.4272461  c-1.3017578-6.3613281-6.984375-11.0585938-13.5566406-11.0585938c-5.0361328,0-9.5722656,2.6601563-12.0322266,6.9980469  c-0.5576172-0.1337891-1.1240234-0.2016602-1.6914063-0.2016602c-4.0498047,0-7.3447266,3.2949219-7.3447266,7.3452148  c0,0.5244141,0.0576172,1.0458984,0.1708984,1.5600586C7.9677734,28.0625,6,30.8095703,6,33.9091797  C6,37.9589844,9.2949219,41.2539063,13.3447266,41.2539063z"></path><rect x="17.2105656" y="35.9664383" transform="matrix(0.4472487 -0.8944097 0.8944097 0.4472487 -22.0106449 38.3175735)" width="5.5700803" height="2.0002327"></rect><rect x="23.8802166" y="35.9664383" transform="matrix(0.4471084 -0.8944798 0.8944798 0.4471084 -18.322958 44.2898369)" width="5.5696435" height="2.0002327"></rect><rect x="30.5501385" y="35.9664383" transform="matrix(0.4471084 -0.8944798 0.8944798 0.4471084 -14.6352139 50.2559471)" width="5.5696435" height="2.0002327"></rect><rect x="37.2193527" y="35.9664383" transform="matrix(0.4472487 -0.8944097 0.8944097 0.4472487 -10.9507589 56.2136269)" width="5.5700803" height="2.0002327"></rect><rect x="17.2103462" y="44.1951981" transform="matrix(0.4472136 -0.8944272 0.8944272 0.4472136 -29.3706169 42.8679657)" width="5.5705171" height="2.0002327"></rect><rect x="23.8799992" y="44.1951981" transform="matrix(0.4470733 -0.8944973 0.8944973 0.4470733 -25.6832733 48.8414993)" width="5.5700803" height="2.0002327"></rect><rect x="30.549921" y="44.1951981" transform="matrix(0.4470733 -0.8944973 0.8944973 0.4470733 -21.9952965 54.8077278)" width="5.5700803" height="2.0002327"></rect><rect x="37.2191353" y="44.1951981" transform="matrix(0.4472136 -0.8944272 0.8944272 0.4472136 -18.3100319 60.7643738)" width="5.5705171" height="2.0002327"></rect></svg>