<svg height='100px' width='100px'  fill="#000000" xmlns="http://www.w3.org/2000/svg" xmlns:xlink="http://www.w3.org/1999/xlink" version="1.1" x="0px" y="0px" viewBox="0 0 60 60" style="enable-background:new 0 0 60 60;" xml:space="preserve"><path d="M15.6113281,9.7197266c1.4858398,1.0058594,3.1889648,1.5087891,4.8925781,1.5087891  c1.703125,0,3.40625-0.5029297,4.8925781-1.5087891L26.2285156,9.15625c2.2910156-1.5507813,5.2519531-1.5507813,7.5429688,0  L34.8925781,7.5c-2.9726563-2.0117188-6.8134766-2.0117188-9.7851563,0l-0.8320313,0.5634766  c-2.2919922,1.5507813-5.2519531,1.5507813-7.5429688,0C13.3540039,5.7763672,8.7592773,6.1621094,5.809082,8.9824219  l1.3818359,1.4453125C9.4658203,8.2529297,13.0068359,7.9560547,15.6113281,9.7197266z"></path><path d="M43.2675781,8.0634766l1.1210938,1.65625c2.6049805-1.7636719,6.1459961-1.4667969,8.4204102,0.7080078l1.3818359-1.4453125  C51.2407227,6.1621094,46.6459961,5.7763672,43.2675781,8.0634766z"></path><path d="M15.6113281,20.4150391c2.9716797,2.0117188,6.8125,2.0126953,9.7851563,0l0.8320313-0.5634766  c2.2919922-1.5507813,5.2519531-1.5507813,7.5429688,0l0.8320313,0.5634766  c1.4863281,1.0058594,3.1894531,1.5087891,4.8925781,1.5087891c1.7036133,0,3.4067383-0.5029297,4.8925781-1.5087891  c2.6049805-1.7626953,6.1459961-1.4658203,8.4204102,0.7080078l1.3818359-1.4453125  c-2.9501953-2.8203125-7.5449219-3.2060547-10.9233398-0.9189453c-2.2905273,1.5507813-5.2514648,1.5507813-7.5429688,0  l-0.8320313-0.5634766c-2.9716797-2.0117188-6.8134766-2.0117188-9.7851563,0l-0.8320313,0.5634766  c-2.2919922,1.5507813-5.2519531,1.5507813-7.5429688,0c-3.378418-2.2861328-7.9731445-1.9023438-10.9233398,0.9189453  l1.3818359,1.4453125C9.4658203,18.9492188,13.0068359,18.6523438,15.6113281,20.4150391z"></path><path d="M15.6113281,31.109375c1.4858398,1.0058594,3.1889648,1.5097656,4.8925781,1.5087891  c1.703125,0,3.40625-0.5029297,4.8920898-1.5087891l0.8325195-0.5625c2.2910156-1.5507813,5.2519531-1.5507813,7.5429688,0  l1.1210938-1.65625c-2.9726563-2.0117188-6.8129883-2.0117188-9.784668,0l-0.8325195,0.5625  c-2.2919922,1.5507813-5.2519531,1.5507813-7.5429688,0c-3.3803711-2.2880859-7.9731445-1.9033203-10.9238281,0.9199219  l1.3828125,1.4453125C9.4658203,29.6445313,13.0068359,29.3457031,15.6113281,31.109375z"></path><path d="M43.2675781,29.453125l1.1210938,1.65625c2.6040039-1.7646484,6.1455078-1.4658203,8.4199219,0.7089844l1.3828125-1.4453125  C51.2412109,27.5498047,46.6459961,27.1650391,43.2675781,29.453125z"></path><path d="M5.809082,41.0673828l1.3818359,1.4453125c2.2749023-2.1728516,5.815918-2.4707031,8.4204102-0.7080078l1.1210938-1.65625  C13.3540039,37.8623047,8.7592773,38.2470703,5.809082,41.0673828z"></path><path d="M43.2675781,40.1484375c-2.2905273,1.5507813-5.2514648,1.5507813-7.5429688,0l-0.8320313-0.5634766  c-2.9716797-2.0117188-6.8134766-2.0117188-9.7851563,0l-0.8320313,0.5634766l1.1210938,1.65625l0.8320313-0.5634766  c2.2919922-1.5507813,5.2519531-1.5507813,7.5429688,0l0.8320313,0.5634766  c1.4863281,1.0058594,3.1894531,1.5087891,4.8925781,1.5087891c1.7036133,0,3.4067383-0.5029297,4.8925781-1.5087891  c2.6049805-1.7626953,6.1459961-1.4658203,8.4204102,0.7080078l1.3818359-1.4453125  C51.2407227,38.2470703,46.6459961,37.8603516,43.2675781,40.1484375z"></path><path d="M43.2675781,50.84375c-2.2905273,1.5507813-5.2514648,1.5507813-7.5429688,0l-0.8320313-0.5634766  c-2.9716797-2.0117188-6.8134766-2.0117188-9.7851563,0L24.2753906,50.84375c-2.2910156,1.5507813-5.2519531,1.5507813-7.5429688,0  c-3.378418-2.2871094-7.9731445-1.9013672-10.9233398,0.9189453l1.3818359,1.4453125  C9.4658203,51.0341797,13.0083008,50.7373047,15.6113281,52.5c2.9726563,2.0126953,6.8134766,2.0126953,9.7851563,0  l0.8320313-0.5634766c2.2919922-1.5507813,5.2519531-1.5507813,7.5429688,0L34.6035156,52.5  c1.4863281,1.0058594,3.1894531,1.5087891,4.8925781,1.5087891c1.7036133,0,3.4067383-0.5029297,4.8925781-1.5087891  c2.6049805-1.7636719,6.1459961-1.4667969,8.4204102,0.7080078l1.3818359-1.4453125  C51.2402344,48.9423828,46.6474609,48.5546875,43.2675781,50.84375z"></path></svg>