<svg height='100px' width='100px'  fill="#000000" xmlns="http://www.w3.org/2000/svg" xmlns:xlink="http://www.w3.org/1999/xlink" version="1.1" x="0px" y="0px" viewBox="0 0 60 60" style="enable-background:new 0 0 60 60;" xml:space="preserve"><rect x="36.8178711" y="7" width="2" height="3.0732422"></rect><rect x="49.9267578" y="21.1821289" width="3.0732422" height="2"></rect><rect x="45.9297676" y="11.5335541" transform="matrix(0.7071068 -0.7071068 0.7071068 0.7071068 5.0401459 37.2348824)" width="3.0735667" height="1.9997864"></rect><rect x="27.1692963" y="10.996664" transform="matrix(0.7071068 -0.7071068 0.7071068 0.7071068 -0.611921 23.5895863)" width="1.9997864" height="3.0735667"></rect><path d="M13.3447266,47.8876953v-2C10.3974609,45.8876953,8,43.4902344,8,40.5429688  c0-2.5219727,1.7895508-4.7231445,4.2553711-5.2329102l1.1474609-0.237793l-0.4150391-1.0957031  c-0.2324219-0.6137695-0.3500977-1.2490234-0.3500977-1.8881836c0-2.9472656,2.3974609-5.3447266,5.3447266-5.3447266  c0.621582,0,1.2421875,0.112793,1.8442383,0.3349609l0.8466797,0.3129883l0.3974609-0.8105469  c2.0073242-4.0917969,6.0820313-6.6337891,10.6347656-6.6337891c5.8666992,0,10.9057617,4.3754883,11.7211914,10.1772461  l0.1235352,0.8808594l0.9951172-0.0263672c4.1103516,0,7.4545898,3.34375,7.4545898,7.4541016  s-3.3442383,7.4545898-7.4545898,7.4545898v2C49.7587891,47.8876953,54,43.6464844,54,38.4331055  c0-4.9716797-3.8579102-9.0595703-8.737793-9.4272461c-0.0157471-0.0769043-0.039917-0.1503906-0.0569458-0.2268066  c1.6258545-1.8195801,2.5252075-4.1491699,2.5252075-6.5969238c0-5.4658203-4.4467773-9.9125977-9.9125977-9.9125977  c-4.0042725,0-7.5380859,2.3479004-9.1044922,6.0042725c-3.7988892,0.8289795-7.0789795,3.2149048-9.0395508,6.6715088  c-0.5571289-0.1337891-1.1230469-0.2016602-1.6914063-0.2016602c-4.0498047,0-7.3447266,3.2949219-7.3447266,7.3447266  c0,0.5249023,0.0571289,1.046875,0.1708984,1.5610352C7.9677734,34.6967773,6,37.4433594,6,40.5429688  C6,44.5927734,9.2949219,47.8876953,13.3447266,47.8876953z M37.8178711,14.2695313  c4.362793,0,7.9125977,3.5498047,7.9125977,7.9125977c0,1.5365601-0.442688,3.015686-1.2616577,4.2842407  c-2.1104126-5.0303955-7.1033936-8.519104-12.7632446-8.519104c-0.1911621,0-0.3800049,0.0111694-0.5696411,0.0187988  C32.5648193,15.6880493,35.0453491,14.2695313,37.8178711,14.2695313z"></path><rect x="17.2098579" y="41.2796707" transform="matrix(0.4472136 -0.8944272 0.8944272 0.4472136 -26.7631607 41.255867)" width="5.5705171" height="2.0002327"></rect><rect x="23.8797798" y="41.2796707" transform="matrix(0.4472136 -0.8944272 0.8944272 0.4472136 -23.0761185 47.2216263)" width="5.5705171" height="2.0002327"></rect><rect x="30.5497017" y="41.2796707" transform="matrix(0.4472136 -0.8944272 0.8944272 0.4472136 -19.3890762 53.1873856)" width="5.5705171" height="2.0002327"></rect><rect x="37.2196236" y="41.2796707" transform="matrix(0.4472136 -0.8944272 0.8944272 0.4472136 -15.702034 59.1531448)" width="5.5705171" height="2.0002327"></rect><rect x="17.2098579" y="49.5086746" transform="matrix(0.4472136 -0.8944272 0.8944272 0.4472136 -34.1234055 45.8047485)" width="5.5705171" height="2.0002327"></rect><rect x="23.8797798" y="49.5086746" transform="matrix(0.4472136 -0.8944272 0.8944272 0.4472136 -30.4363632 51.7705078)" width="5.5705171" height="2.0002327"></rect><rect x="30.5497017" y="49.5086746" transform="matrix(0.4472136 -0.8944272 0.8944272 0.4472136 -26.749321 57.7362671)" width="5.5705171" height="2.0002327"></rect><rect x="37.2196236" y="49.5086746" transform="matrix(0.4472136 -0.8944272 0.8944272 0.4472136 -23.0622787 63.7020264)" width="5.5705171" height="2.0002327"></rect></svg>