<svg height='100px' width='100px'  fill="#000000" xmlns="http://www.w3.org/2000/svg" xmlns:xlink="http://www.w3.org/1999/xlink" version="1.1" x="0px" y="0px" viewBox="0 0 60 60" style="enable-background:new 0 0 60 60;" xml:space="preserve"><path d="M45.262207,35.1181641c-0.350708-1.7137451-1.0280151-3.3005371-1.9465332-4.713501  c2.730835-1.8308105,4.4147949-4.9108276,4.4147949-8.2225342c0-5.4658203-4.4467773-9.9125977-9.9125977-9.9125977  s-9.9125977,4.4467773-9.9125977,9.9125977c0,0.789856,0.0957031,1.569397,0.2788086,2.3286133  c-3.5734863,0.9283447-6.6412354,3.251709-8.5102539,6.546875c-0.5571289-0.1342773-1.1230469-0.2016602-1.6914063-0.2016602  c-4.0498047,0-7.3447266,3.2949219-7.3447266,7.3447266c0,0.5249023,0.0571289,1.046875,0.1708984,1.5610352  C7.9677734,40.809082,6,43.5556641,6,46.6552734C6,50.7050781,9.2949219,54,13.3447266,54h31.2006836  C49.7587891,54,54,49.7587891,54,44.5454102C54,39.5737305,50.1420898,35.4858398,45.262207,35.1181641z M29.9052734,22.1821289  c0-4.362793,3.5498047-7.9125977,7.9125977-7.9125977s7.9125977,3.5498047,7.9125977,7.9125977  c0,2.6796265-1.3808594,5.1697388-3.6138306,6.6239014c-2.5599976-2.9185181-6.3123779-4.74646-10.4110718-4.74646  c-0.5152588,0-1.0236206,0.03479-1.5267334,0.0894775C30.0142212,23.5076294,29.9052734,22.8526001,29.9052734,22.1821289z   M44.5454102,52H13.3447266C10.3974609,52,8,49.6025391,8,46.6552734c0-2.5219727,1.7895508-4.7231445,4.2553711-5.2329102  l1.1474609-0.237793l-0.4150391-1.0957031c-0.2324219-0.6137695-0.3500977-1.2490234-0.3500977-1.8881836  c0-2.9472656,2.3974609-5.3447266,5.3447266-5.3447266c0.6210938,0,1.2416992,0.112793,1.8447266,0.3349609l0.8461914,0.3115234  l0.3974609-0.8095703c2.0073242-4.0917969,6.0820313-6.6333008,10.6347656-6.6333008  c5.8666992,0,10.9057617,4.3754883,11.7211914,10.1772461l0.1235352,0.8808594l1.0048828-0.0263672  C48.6611328,37.0966797,52,40.4384766,52,44.5454102C52,48.6557617,48.6557617,52,44.5454102,52z"></path><rect x="36.8178711" y="7" width="2" height="3.0732422"></rect><rect x="49.9267578" y="21.1821289" width="3.0732422" height="2"></rect><rect x="22.6357422" y="21.1821289" width="3.0732422" height="2"></rect><rect x="45.9297676" y="11.5335541" transform="matrix(0.7071068 -0.7071068 0.7071068 0.7071068 5.0401459 37.2348824)" width="3.0735667" height="1.9997864"></rect><rect x="46.4666595" y="30.2940273" transform="matrix(0.7071068 -0.7071068 0.7071068 0.7071068 -8.6051502 42.8869514)" width="1.9997864" height="3.0735667"></rect><rect x="27.1692963" y="10.996664" transform="matrix(0.7071068 -0.7071068 0.7071068 0.7071068 -0.611921 23.5895863)" width="1.9997864" height="3.0735667"></rect></svg>