<svg height='100px' width='100px'  fill="#000000" xmlns="http://www.w3.org/2000/svg" xmlns:xlink="http://www.w3.org/1999/xlink" version="1.1" x="0px" y="0px" viewBox="0 0 60 60" style="enable-background:new 0 0 60 60;" xml:space="preserve"><path d="M45.2626953,22.3720703c-1.3017578-6.3613281-6.984375-11.0585938-13.5566406-11.0585938  c-5.0361328,0-9.5722656,2.6601563-12.0322266,6.9980469c-0.5576172-0.1337891-1.1240234-0.2016602-1.6914063-0.2016602  c-4.0498047,0-7.3447266,3.2949219-7.3447266,7.3452148c0,0.5244141,0.0576172,1.0458984,0.1708984,1.5600586  C7.9677734,28.0625,6,30.8095703,6,33.9091797c0,4.0498047,3.2949219,7.3447266,7.3447266,7.3447266v-2  C10.3974609,39.2539063,8,36.8564453,8,33.9091797c0-2.5224609,1.7900391-4.7231445,4.2548828-5.2329102l1.1474609-0.2373047  l-0.4140625-1.0957031c-0.2324219-0.6152344-0.3505859-1.2504883-0.3505859-1.8881836  c0-2.9472656,2.3974609-5.3452148,5.3447266-5.3452148c0.6201172,0,1.2412109,0.112793,1.8447266,0.3354492l0.8466797,0.3120117  l0.3964844-0.8100586c2.0078125-4.0917969,6.0830078-6.6337891,10.6357422-6.6337891  c5.8671875,0,10.90625,4.375,11.7207031,10.1772461l0.1240234,0.8808594l0.9951172-0.0263672  C48.65625,24.3452148,52,27.6889648,52,31.7993164s-3.34375,7.4545898-7.4541016,7.4545898v2  C49.7587891,41.2539063,54,37.0126953,54,31.7993164C54,26.8276367,50.1416016,22.7397461,45.2626953,22.3720703z"></path><rect x="12.6099787" y="40.0809402" transform="matrix(0.4472136 -0.8944272 0.8944272 0.4472136 -25.6909828 40.5932236)" width="14.770277" height="2.0002327"></rect><rect x="19.2798996" y="40.0809402" transform="matrix(0.4472136 -0.8944272 0.8944272 0.4472136 -22.0039406 46.5589828)" width="14.770277" height="2.0002327"></rect><rect x="25.9498215" y="40.0809402" transform="matrix(0.4472136 -0.8944272 0.8944272 0.4472136 -18.3168983 52.5247421)" width="14.770277" height="2.0002327"></rect><rect x="32.6197433" y="40.0809402" transform="matrix(0.4472136 -0.8944272 0.8944272 0.4472136 -14.6298571 58.4905052)" width="14.770277" height="2.0002327"></rect></svg>