<svg height='100px' width='100px'  fill="#000000" xmlns="http://www.w3.org/2000/svg" xmlns:xlink="http://www.w3.org/1999/xlink" version="1.1" x="0px" y="0px" viewBox="0 0 60 60" style="enable-background:new 0 0 60 60;" xml:space="preserve"><path d="M8.0087891,36.4956055l-0.5175781,1.9316406l4.038269,1.0821533l-1.1017456,0.6361084l1,1.7324219l1.1016235-0.6359863  l-1.0820923,4.0378418l1.9316406,0.5175781l1.5996704-5.9694824l3.4931641-2.0167847l-1.0820923,4.0380249l1.9316406,0.5175781  l1.5996704-5.9696045l2.0502319-1.1836548C24.3818359,37.1101074,26.5338745,38.4209595,29,38.7026978v2.3580933  l-4.3701172,4.3713379l1.4140625,1.4140625L29,43.8897705v4.0326538l-4.3701172,4.3705444l1.4140625,1.4140625L29,50.7506104  v1.2728271h2v-1.2728271l2.9560547,2.9564209l1.4140625-1.4140625L31,47.9224243v-4.0327759l2.9560547,2.9560547  l1.4140625-1.4140625L31,41.06073v-2.3580322c2.4661255-0.2817383,4.6181641-1.5925903,6.0288086-3.4892578l2.0501709,1.1835938  l1.5997314,5.9701538l1.9316406-0.5175781l-1.0821533-4.0385132l3.4933472,2.0168457l1.5995483,5.9694214l1.9316406-0.5175781  l-1.0819702-4.0377808l1.1015015,0.6359253l1-1.7324219l-1.102356-0.6364136l4.0388794-1.0823364l-0.5175781-1.9316406  l-5.97052,1.5999146l-3.4923096-2.0162964l4.0390015-1.0821533l-0.5175781-1.9316406l-5.9707031,1.5997314l-2.0418091-1.178772  c0.4656982-1.0693359,0.727356-2.2471313,0.727356-3.4859009s-0.2616577-2.4165649-0.727356-3.4859009l2.0418091-1.178772  l5.9707031,1.5997314l0.5175781-1.9316406l-4.0390015-1.0821533l3.4929199-2.0166626l5.9699097,1.5997925l0.5175781-1.9316406  l-4.038269-1.0821533l1.1017456-0.6361084l-1-1.7324219l-1.1016235,0.6359863l1.0820923-4.0378418l-1.9316406-0.5175781  l-1.5996704,5.9694824l-3.4931641,2.0167847l1.0820923-4.0380249l-1.9316406-0.5175781l-1.5996704,5.9696045l-2.0502319,1.1836548  C35.6181641,22.8898926,33.4661255,21.5790405,31,21.2973022V18.939209l4.3701172-4.3713379l-1.4140625-1.4140625L31,16.1102295  v-4.0326538l4.3701172-4.3705444l-1.4140625-1.4140625L31,9.2493896V7.9765625h-2v1.2728271l-2.9560547-2.9564209  l-1.4140625,1.4140625L29,12.0775757v4.0327759l-2.9560547-2.9560547l-1.4140625,1.4140625L29,18.93927v2.3580322  c-2.4661255,0.2817383-4.6181641,1.5925903-6.0288086,3.4892578l-2.0501709-1.1835938l-1.5997314-5.9701538l-1.9316406,0.5175781  l1.0821533,4.0385132l-3.4933472-2.0168457l-1.5995483-5.9694214l-1.9316406,0.5175781l1.0819702,4.0377808l-1.1015015-0.6359253  l-1,1.7324219l1.102356,0.6364136l-4.0388794,1.0823364l0.5175781,1.9316406l5.97052-1.5999146l3.4923096,2.0162964  l-4.0390015,1.0821533l0.5175781,1.9316406l5.9707031-1.5997314l2.0418091,1.178772  C21.4970093,27.5834351,21.2353516,28.7612305,21.2353516,30s0.2616577,2.4165649,0.727356,3.4859009l-2.0418091,1.178772  l-5.9707031-1.5997314l-0.5175781,1.9316406l4.0390015,1.0821533l-3.4929199,2.0166626L8.0087891,36.4956055z M30,23.2358398  c3.7304688,0,6.7646484,3.0341797,6.7646484,6.7641602S33.7304688,36.7641602,30,36.7641602S23.2353516,33.7299805,23.2353516,30  S26.2695313,23.2358398,30,23.2358398z"></path></svg>