<svg height='100px' width='100px'  fill="#000000" xmlns="http://www.w3.org/2000/svg" xmlns:xlink="http://www.w3.org/1999/xlink" version="1.1" x="0px" y="0px" viewBox="0 0 60 60" style="enable-background:new 0 0 60 60;" xml:space="preserve"><path d="M45.262207,22.3720703c-1.3017578-6.3613281-6.9848633-11.0585938-13.5566406-11.0585938  c-5.0356445,0-9.5712891,2.6601563-12.0317383,6.9980469c-0.5571289-0.1337891-1.1230469-0.2011719-1.6914063-0.2011719  c-4.0498047,0-7.3447266,3.2949219-7.3447266,7.3447266c0,0.5244141,0.0571289,1.046875,0.1704102,1.5605469  C7.9677734,28.0634766,6,30.8105469,6,33.9091797c0,4.0498047,3.2949219,7.3447266,7.3447266,7.3447266v-2  C10.3974609,39.2539063,8,36.8564453,8,33.9091797c0-2.5214844,1.7895508-4.7226563,4.2558594-5.2333984L13.402832,28.4375  l-0.4150391-1.0957031c-0.2324219-0.6132813-0.3500977-1.2480469-0.3500977-1.8867188  c0-2.9472656,2.3974609-5.3447266,5.3447266-5.3447266c0.6210938,0,1.2416992,0.1123047,1.8447266,0.3349609l0.8461914,0.3115234  l0.3974609-0.8095703c2.0073242-4.0917969,6.0825195-6.6337891,10.6347656-6.6337891  c5.8671875,0,10.9057617,4.375,11.7211914,10.1767578l0.1235352,0.8808594l0.9951172-0.0263672  C48.6557617,24.3447266,52,27.6894531,52,31.7998047s-3.3442383,7.4541016-7.4545898,7.4541016v2  C49.7587891,41.2539063,54,37.0126953,54,31.7998047C54,26.8271484,50.1420898,22.7392578,45.262207,22.3720703z"></path><path d="M36.222168,35.6152344h-3.6772461l4.1665039-8.9287109h-8.621582l-3.5571289,13.8251953h1.6328125l-3.8930664,11.8398438  L36.222168,35.6152344z M29.640625,28.6865234h3.9301758l-4.1665039,8.9287109h2.5473633l-4.5063477,5.40625l1.4829102-4.5097656  H27.112793L29.640625,28.6865234z"></path></svg>