<svg width="20" height="20" viewBox="0 0 20 20" fill="none" xmlns="http://www.w3.org/2000/svg">
<path fill-rule="evenodd" clip-rule="evenodd" d="M1 4.6C1 3.64522 1.37928 2.72955 2.05442 2.05442C2.72955 1.37928 3.64522 1 4.6 1H15.4C16.3548 1 17.2705 1.37928 17.9456 2.05442C18.6207 2.72955 19 3.64522 19 4.6V15.4C19 16.3548 18.6207 17.2705 17.9456 17.9456C17.2705 18.6207 16.3548 19 15.4 19H4.6C3.64522 19 2.72955 18.6207 2.05442 17.9456C1.37928 17.2705 1 16.3548 1 15.4V4.6ZM4.6 2.8C4.12261 2.8 3.66477 2.98964 3.32721 3.32721C2.98964 3.66477 2.8 4.12261 2.8 4.6V15.4C2.8 15.8774 2.98964 16.3352 3.32721 16.6728C3.66477 17.0104 4.12261 17.2 4.6 17.2H10V10.9H9.1C8.8613 10.9 8.63239 10.8052 8.4636 10.6364C8.29482 10.4676 8.2 10.2387 8.2 10C8.2 9.7613 8.29482 9.53239 8.4636 9.3636C8.63239 9.19482 8.8613 9.1 9.1 9.1H10V7.75C10 6.91457 10.3319 6.11335 10.9226 5.52261C11.5134 4.93187 12.3146 4.6 13.15 4.6H13.69C13.9287 4.6 14.1576 4.69482 14.3264 4.8636C14.4952 5.03239 14.59 5.2613 14.59 5.5C14.59 5.73869 14.4952 5.96761 14.3264 6.1364C14.1576 6.30518 13.9287 6.4 13.69 6.4H13.15C12.9727 6.4 12.7972 6.43492 12.6334 6.50276C12.4696 6.57061 12.3208 6.67005 12.1954 6.79541C12.07 6.92076 11.9706 7.06959 11.9028 7.23338C11.8349 7.39717 11.8 7.57272 11.8 7.75V9.1H13.69C13.9287 9.1 14.1576 9.19482 14.3264 9.3636C14.4952 9.53239 14.59 9.7613 14.59 10C14.59 10.2387 14.4952 10.4676 14.3264 10.6364C14.1576 10.8052 13.9287 10.9 13.69 10.9H11.8V17.2H15.4C15.8774 17.2 16.3352 17.0104 16.6728 16.6728C17.0104 16.3352 17.2 15.8774 17.2 15.4V4.6C17.2 4.12261 17.0104 3.66477 16.6728 3.32721C16.3352 2.98964 15.8774 2.8 15.4 2.8H4.6Z" fill="white" stroke="#213E4C" stroke-width="0.5"/>
</svg>
