<svg width="20" height="20" viewBox="0 0 20 20" fill="none" xmlns="http://www.w3.org/2000/svg">
<path fill-rule="evenodd" clip-rule="evenodd" d="M10 3.00092C8.65831 3.00127 7.34499 3.38719 6.2164 4.11274C5.08781 4.83829 4.19151 5.8729 3.63422 7.09337C3.07693 8.31385 2.88213 9.66877 3.07301 10.9968C3.26389 12.3249 3.83242 13.5701 4.71089 14.5842C5.58936 15.5983 6.74077 16.3386 8.02802 16.7169C9.31527 17.0952 10.6841 17.0956 11.9716 16.7181C13.2591 16.3405 14.4109 15.6009 15.29 14.5873C16.1691 13.5737 16.7383 12.3288 16.93 11.0009H11C10.7348 11.0009 10.4804 10.8956 10.2929 10.708C10.1054 10.5205 10 10.2661 10 10.0009C10 9.7357 10.1054 9.48135 10.2929 9.29381C10.4804 9.10628 10.7348 9.00092 11 9.00092H18C18.2652 9.00092 18.5196 9.10628 18.7071 9.29381C18.8946 9.48135 19 9.7357 19 10.0009C18.9998 12.0423 18.3056 14.023 17.0313 15.6179C15.7571 17.2127 13.9785 18.327 11.9874 18.7778C9.99644 19.2286 7.91133 18.9891 6.07436 18.0987C4.23738 17.2083 2.7577 15.7198 1.87817 13.8776C0.998645 12.0354 0.771536 9.94888 1.23412 7.96058C1.69671 5.97228 2.8215 4.20031 4.42389 2.93552C6.02627 1.67073 8.01103 0.988268 10.0524 1.00015C12.0938 1.01204 14.0705 1.71756 15.658 3.00092C15.8642 3.16775 15.9957 3.40965 16.0235 3.67342C16.0514 3.93719 15.9733 4.20122 15.8065 4.40742C15.6397 4.61363 15.3978 4.74512 15.134 4.77297C14.8702 4.80082 14.6062 4.72274 14.4 4.55592C13.1557 3.54719 11.6018 2.99803 10 3.00092Z" fill="white" stroke="#213E4C" stroke-width="0.5"/>
</svg>
