<svg width="20" height="20" viewBox="0 0 20 20" fill="none" xmlns="http://www.w3.org/2000/svg">
<path fill-rule="evenodd" clip-rule="evenodd" d="M1 4.6C1 3.64522 1.37928 2.72955 2.05442 2.05442C2.72955 1.37928 3.64522 1 4.6 1H15.4C16.3548 1 17.2705 1.37928 17.9456 2.05442C18.6207 2.72955 19 3.64522 19 4.6V15.4C19 16.3548 18.6207 17.2705 17.9456 17.9456C17.2705 18.6207 16.3548 19 15.4 19H4.6C3.64522 19 2.72955 18.6207 2.05442 17.9456C1.37928 17.2705 1 16.3548 1 15.4V4.6ZM4.6 2.8C4.12261 2.8 3.66477 2.98964 3.32721 3.32721C2.98964 3.66477 2.8 4.12261 2.8 4.6V15.4C2.8 15.8774 2.98964 16.3352 3.32721 16.6728C3.66477 17.0104 4.12261 17.2 4.6 17.2H15.4C15.8774 17.2 16.3352 17.0104 16.6728 16.6728C17.0104 16.3352 17.2 15.8774 17.2 15.4V4.6C17.2 4.12261 17.0104 3.66477 16.6728 3.32721C16.3352 2.98964 15.8774 2.8 15.4 2.8H4.6ZM10 7.3C9.28392 7.3 8.59716 7.58446 8.09081 8.09081C7.58446 8.59716 7.3 9.28392 7.3 10C7.3 10.7161 7.58446 11.4028 8.09081 11.9092C8.59716 12.4155 9.28392 12.7 10 12.7C10.7161 12.7 11.4028 12.4155 11.9092 11.9092C12.4155 11.4028 12.7 10.7161 12.7 10C12.7 9.28392 12.4155 8.59716 11.9092 8.09081C11.4028 7.58446 10.7161 7.3 10 7.3ZM5.5 10C5.5 8.80653 5.97411 7.66193 6.81802 6.81802C7.66193 5.97411 8.80653 5.5 10 5.5C11.1935 5.5 12.3381 5.97411 13.182 6.81802C14.0259 7.66193 14.5 8.80653 14.5 10C14.5 11.1935 14.0259 12.3381 13.182 13.182C12.3381 14.0259 11.1935 14.5 10 14.5C8.80653 14.5 7.66193 14.0259 6.81802 13.182C5.97411 12.3381 5.5 11.1935 5.5 10ZM14.95 6.4C15.308 6.4 15.6514 6.25777 15.9046 6.00459C16.1578 5.75142 16.3 5.40804 16.3 5.05C16.3 4.69196 16.1578 4.34858 15.9046 4.09541C15.6514 3.84223 15.308 3.7 14.95 3.7C14.592 3.7 14.2486 3.84223 13.9954 4.09541C13.7422 4.34858 13.6 4.69196 13.6 5.05C13.6 5.40804 13.7422 5.75142 13.9954 6.00459C14.2486 6.25777 14.592 6.4 14.95 6.4Z" fill="white" stroke="#213E4C" stroke-width="0.5"/>
</svg>
