<svg width="20" height="20" viewBox="0 0 20 20" fill="none" xmlns="http://www.w3.org/2000/svg">
<path fill-rule="evenodd" clip-rule="evenodd" d="M4.6 1C3.64522 1 2.72955 1.37928 2.05442 2.05442C1.37928 2.72955 1 3.64522 1 4.6V15.4C1 16.3548 1.37928 17.2705 2.05442 17.9456C2.72955 18.6207 3.64522 19 4.6 19H15.4C16.3548 19 17.2705 18.6207 17.9456 17.9456C18.6207 17.2705 19 16.3548 19 15.4V4.6C19 3.64522 18.6207 2.72955 17.9456 2.05442C17.2705 1.37928 16.3548 1 15.4 1H4.6ZM2.8 4.6C2.8 4.12261 2.98964 3.66477 3.32721 3.32721C3.66477 2.98964 4.12261 2.8 4.6 2.8H15.4C15.8774 2.8 16.3352 2.98964 16.6728 3.32721C17.0104 3.66477 17.2 4.12261 17.2 4.6V15.4C17.2 15.8774 17.0104 16.3352 16.6728 16.6728C16.3352 17.0104 15.8774 17.2 15.4 17.2H4.6C4.12261 17.2 3.66477 17.0104 3.32721 16.6728C2.98964 16.3352 2.8 15.8774 2.8 15.4V4.6ZM7.3 9.1C7.3 8.8613 7.20518 8.63239 7.0364 8.4636C6.86761 8.29482 6.63869 8.2 6.4 8.2C6.1613 8.2 5.93239 8.29482 5.7636 8.4636C5.59482 8.63239 5.5 8.8613 5.5 9.1V14.5C5.5 14.7387 5.59482 14.9676 5.7636 15.1364C5.93239 15.3052 6.1613 15.4 6.4 15.4C6.63869 15.4 6.86761 15.3052 7.0364 15.1364C7.20518 14.9676 7.3 14.7387 7.3 14.5V9.1ZM7.75 5.95C7.75 6.30804 7.60777 6.65142 7.35459 6.90459C7.10142 7.15777 6.75804 7.3 6.4 7.3C6.04196 7.3 5.69858 7.15777 5.44541 6.90459C5.19223 6.65142 5.05 6.30804 5.05 5.95C5.05 5.59196 5.19223 5.24858 5.44541 4.99541C5.69858 4.74223 6.04196 4.6 6.4 4.6C6.75804 4.6 7.10142 4.74223 7.35459 4.99541C7.60777 5.24858 7.75 5.59196 7.75 5.95ZM10 8.2C10.306 8.2 10.576 8.353 10.738 8.5852C11.2019 8.33239 11.7217 8.19995 12.25 8.2C14.194 8.2 15.4 9.9334 15.4 11.4139V14.5C15.4 14.7387 15.3052 14.9676 15.1364 15.1364C14.9676 15.3052 14.7387 15.4 14.5 15.4C14.2613 15.4 14.0324 15.3052 13.8636 15.1364C13.6948 14.9676 13.6 14.7387 13.6 14.5V11.413C13.6 10.7218 13.006 9.9991 12.25 9.9991C11.7784 9.9991 11.2573 10.2556 10.9 10.8658V14.5C10.9 14.7387 10.8052 14.9676 10.6364 15.1364C10.4676 15.3052 10.2387 15.4 10 15.4C9.7613 15.4 9.53239 15.3052 9.3636 15.1364C9.19482 14.9676 9.1 14.7387 9.1 14.5V9.1C9.1 8.8613 9.19482 8.63239 9.3636 8.4636C9.53239 8.29482 9.7613 8.2 10 8.2Z" fill="white" stroke="#213E4C" stroke-width="0.5"/>
</svg>
