<svg xmlns="http://www.w3.org/2000/svg" xmlns:xlink="http://www.w3.org/1999/xlink" x="0px" y="0px" viewBox="0 0 530.6 38.1" xml:space="preserve" class="fill-current text-ams-white w-56 xmed:w-80" role="img" aria-labelledby="headerLogo">
<title id="headerLogo">The Ameswell Hotel</title>
<path d="M411.5,13.1v9.8h-10.7v-9.8h-5.3v25h5.3v-9.8h10.7v9.8h5.3v-25H411.5z"></path>
<path d="M430.4,25.6c0,4.4,2.8,8,6.3,8s6.4-3.6,6.4-8s-2.8-8-6.4-8C433.2,17.6,430.4,21.2,430.4,25.6z M448.6,25.6 c0,7.2-5.3,13-11.9,13s-11.9-5.8-11.9-13s5.4-13,11.9-13C443.3,12.6,448.6,18.4,448.6,25.6z"></path>
<path d="M453.7,13.1v5.3h9v19.7h5.4V18.4h9v-5.3H453.7z"></path>
<path d="M486.3,13.1v25h16v-5.3h-10.6v-4.5h10.6v-5.4h-10.6v-4.5h10.6v-5.3H486.3z"></path>
<path d="M514.7,13.1v25h15.9v-5.3H520V13.1H514.7z"></path>
<path d="M0,13.1v5.3h9.1v19.7h5.3V18.4h9v-5.3H0z"></path>
<path d="M48.6,13.1v9.8H38v-9.8h-5.3v25H38v-9.9h10.6v9.9h5.3v-25H48.6z"></path>
<path d="M66.3,13.1v25h16v-5.3H71.6v-4.6h10.7v-5.3H71.6v-4.5h10.7v-5.3H66.3z"></path>
<path d="M186,13.1l-10.5,10.5L165,13.1h-2.8v25h5.3V23.2l8,7.9l8-7.9v14.9h5.3v-25H186z"></path>
<path d="M201.2,13.1v25h15.9v-5.3h-10.6v-4.6h10.6v-5.3h-10.6v-4.5h10.6v-5.3H201.2z"></path>
<path d="M237.9,38.6c-3.5,0-7.2-0.9-10.4-3l0.8-4.4c3.4,1.6,6.6,2.5,9.2,2.5c2.2,0,4.7-0.6,4.7-2.7 c0-4-15.1-2.5-15.1-11c0-4.1,4.3-7.6,9.7-7.6c3.7,0,7.3,1.1,10.8,3.3l-1.9,4c-2.5-1.3-5.6-2.3-8.1-2.3c-3,0-4.4,1-4.4,2.4 c0,3.7,15.1,2.8,15.1,10.6C248.3,35.7,243.3,38.6,237.9,38.6z"></path>
<path d="M286.5,13.1l-6.9,15.1l-6.9-15.1H267l3.5,7.3l-3.6,7.8l-7-15.1h-5.7l12.1,25.5h1.1l5.8-12.3l5.9,12.3h1 l12.1-25.5H286.5z"></path>
<path d="M300.2,13.1v25h15.9v-5.3h-10.6v-4.6h10.6v-5.3h-10.6v-4.5h10.6v-5.3H300.2z"></path>
<path d="M328.5,13.1v25h15.9v-5.3h-10.6V13.1H328.5z"></path>
<path d="M352.7,13.1v25h15.9v-5.3H358V13.1H352.7z"></path>
<path d="M120.3,22.6l3.9-12.5c0.7-1.9,1.7-4.7,6.4-4.7c0.1,0,1.7,0,2.7,0.4c2.5,0.8,3.2,2.9,3.7,4.3l3.9,12.5H120.3z M152,38.1l-9.6-29.9c0-0.1-2.6-8.2-11.9-8.2s-11.9,8.2-11.9,8.2L109,38.1h6.1l3-9.4h24.8l3,9.4H152z"></path>
</svg>