<svg width="760" height="116" viewBox="0 0 760 116" fill="none" xmlns="http://www.w3.org/2000/svg">
<path d="M277.237 1.89899H253.479V114.102H277.237V1.89899Z" fill="#1E345D"/>
<path d="M393.18 10.87C389.746 7.965 385.764 5.71899 381.34 4.19199C376.936 2.66999 372.182 1.89899 367.211 1.89899H326.533V114.102H350.292V76.946H366.146C370.347 76.946 374.314 76.536 377.935 75.731C381.603 74.911 385.123 73.52 388.396 71.592C391.691 69.654 394.548 67.184 396.894 64.256C399.24 61.322 401.113 57.6 402.458 53.192C403.792 48.83 404.468 43.851 404.468 38.397C404.468 32.531 403.45 27.167 401.45 22.453C399.434 17.704 396.65 13.805 393.18 10.87ZM350.292 23.073H364.4C369.835 23.073 374.003 24.563 376.783 27.505C379.592 30.471 381.013 34.878 381.013 40.601C381.013 45.431 379.562 49.073 376.578 51.739C373.582 54.416 369.483 55.773 364.399 55.773H350.291V23.073H350.292Z" fill="#1E345D"/>
<path d="M511.184 10.87C507.748 7.965 503.766 5.71899 499.344 4.19199C494.938 2.66999 490.184 1.89899 485.213 1.89899H444.537V114.102H468.293V76.946H484.15C488.351 76.946 492.316 76.536 495.937 75.731C499.605 74.911 503.125 73.52 506.398 71.592C509.693 69.654 512.552 67.184 514.896 64.256C517.242 61.322 519.115 57.6 520.46 53.192C521.792 48.83 522.47 43.851 522.47 38.397C522.47 32.531 521.454 27.167 519.452 22.453C517.436 17.704 514.654 13.805 511.184 10.87ZM468.293 23.073H482.4C487.838 23.073 492.005 24.563 494.787 27.505C497.596 30.471 499.017 34.878 499.017 40.601C499.017 45.431 497.566 49.073 494.579 51.739C491.583 54.416 487.485 55.773 482.399 55.773H468.292V23.073H468.293Z" fill="#1E345D"/>
<path d="M584.455 68.207H625.121V47.033H584.455V23.073H630.02V1.89899H560.697V114.102H630.02V92.928H584.455V68.207Z" fill="#1E345D"/>
<path d="M213.445 91.664L211.759 91.875C211.019 91.969 209.936 92.016 208.54 92.016C206.936 92.016 205.501 91.887 204.272 91.631C203.008 91.369 201.829 91.043 200.763 90.664C199.83 90.332 198.75 89.613 197.548 88.521C196.201 87.302 195.017 86.179 193.996 85.156C193.013 84.174 191.594 82.443 189.777 80.015C187.908 77.515 186.242 75.253 184.777 73.232C183.307 71.207 181.092 68.144 178.131 64.041C175.47 60.357 173.002 56.979 170.729 53.906L216.293 1.89899H185.826L147.095 47.791V1.89899H123.337V114.102H147.095V80.875L155.261 71.586C155.437 71.842 155.619 72.106 155.805 72.373C156.436 73.281 156.94 74.012 157.319 74.566C157.702 75.127 158.249 75.916 158.954 76.923C161.39 80.476 163.292 83.228 164.663 85.183C166.034 87.136 167.71 89.486 169.691 92.23C171.682 94.986 173.307 97.105 174.521 98.527C175.719 99.927 177.173 101.574 178.882 103.461C180.672 105.44 182.219 106.893 183.615 107.904C184.927 108.855 186.451 109.883 188.141 110.959C189.937 112.102 191.729 112.934 193.467 113.43C195.109 113.901 196.915 114.311 198.835 114.645C200.792 114.991 202.907 115.165 205.118 115.165C208.022 115.165 210.817 114.964 213.442 114.575V91.664H213.445Z" fill="#1E345D"/>
<path d="M759.508 91.664L757.824 91.875C757.082 91.969 756 92.014 754.605 92.014C751.261 92.014 748.181 90.368 745.181 86.977C742.167 83.569 737.974 77.284 732.706 68.278C738.739 66.18 743.686 62.78 747.431 58.146C751.603 52.985 753.718 45.984 753.718 37.334C753.718 31.612 752.7 26.406 750.693 21.863C748.673 17.295 745.892 13.516 742.42 10.633C738.986 7.781 735.002 5.589 730.576 4.112C726.174 2.644 721.426 1.90201 716.461 1.90201H675.787V114.104H699.543V75.35H709.6C714.303 83.469 718.262 89.959 721.379 94.647C724.643 99.555 727.934 103.667 731.162 106.868C734.478 110.159 737.676 112.391 740.666 113.507C743.621 114.607 747.16 115.165 751.186 115.165C754.088 115.165 756.885 114.964 759.508 114.575V91.664ZM725.52 49.888C722.245 52.67 718.362 54.024 713.651 54.024H699.544V23.073H713.651C719.147 23.073 723.333 24.507 726.09 27.333C728.901 30.212 730.266 34.078 730.266 39.157C730.266 43.663 728.711 47.172 725.52 49.888Z" fill="#1E345D"/>
<path d="M56.9861 30.581H56.9141V30.653H56.9861V30.581Z" fill="#1E345D"/>
<path d="M68.2099 60.254C65.1789 57.894 61.7909 55.766 58.1429 53.93C54.5429 52.118 50.8909 50.487 47.2889 49.082C43.7789 47.712 40.525 46.288 37.618 44.846C34.867 43.483 32.6119 41.778 30.9149 39.779C29.3089 37.886 28.5269 35.768 28.5269 33.305C28.5269 30.316 29.8889 25.81 34.3479 24.047C39.0849 22.174 46.8709 22.826 51.4469 25.793C55.6529 28.521 56.9869 30.619 60.3989 36.268L79.8839 27.649C76.6679 16.517 65.8719 0.835999 42.3299 0.835999C30.4259 0.835999 21.5049 3.82501 14.9199 9.72101C8.28494 15.663 4.92194 23.701 4.92194 33.609C4.92194 38.204 5.67594 42.421 7.16394 46.141C8.65794 49.881 10.6629 52.996 13.1199 55.398C15.4929 57.719 18.2389 59.886 21.2809 61.837C24.3239 63.784 27.4619 65.394 30.6109 66.616C33.6339 67.79 36.649 69.055 39.571 70.382C42.484 71.702 45.1139 72.978 47.3859 74.175C49.4719 75.277 51.1719 76.671 52.4409 78.325C53.6469 79.897 54.2329 81.602 54.2329 83.532C54.2329 87.727 52.723 93.307 39.67 93.307C34.579 93.307 29.4079 92.297 24.3049 90.303C19.1689 88.299 14.8959 85.907 11.5999 83.19L9.99493 81.87L0.491943 101.948L1.52394 102.747C12.2009 110.987 25.3169 115.165 40.5069 115.165C52.4459 115.165 61.8999 112.288 68.6039 106.614C75.3889 100.87 78.8279 93.157 78.8279 83.682C78.8279 78.543 77.84 73.918 75.89 69.938C73.938 65.957 71.3539 62.699 68.2099 60.254Z" fill="#1E345D"/>
</svg>
