<svg width="48" height="48" viewBox="0 0 104 39" fill="none" xmlns="http://www.w3.org/2000/svg">
<path d="M103 5.31778V11.0764C103 11.0764 99.3986 12.5535 97.671 23.7824C97.671 23.7824 94.3566 37.6654 80.2373 37.6654C78.7967 37.6654 77.3562 37.6654 75.7692 37.5153C72.3142 37.071 68.9997 35.7439 66.2592 33.6723C63.8114 31.9009 61.7911 29.3909 60.2099 26.7308C58.623 23.9266 57.7621 20.8222 56.7549 17.7178C56.3216 16.2406 55.6013 14.7634 54.3071 14.0249C53.5868 13.5805 52.5795 13.5806 51.7129 13.5806C50.8463 13.7306 49.9854 13.8748 49.4057 14.4692C48.3984 15.3578 48.1114 16.835 47.8187 18.1621C46.5245 24.2208 43.497 29.6851 38.8884 33.6723C38.1681 34.2609 37.5941 34.7052 36.8739 35.1495C33.9928 37.071 30.6783 37.9537 27.3638 37.9537C27.3638 37.9537 10.6504 39.4309 7.48256 25.6921C7.48256 25.6921 4.74778 12.8419 1 10.9204L1.01125 4.72902C1.01125 4.72902 14.9836 0.447598 25.9345 1.48043C25.9345 1.48043 34.7243 2.21901 42.5011 3.99043C48.117 5.17332 54.0256 6.50043 59.6409 5.0233C64.6829 3.84041 71.0191 2.36321 76.7808 1.48046C76.9271 1.62472 88.0184 -1.17962 102.998 5.3177L103 5.31778Z" stroke="#213E4C" stroke-width="1.136" stroke-miterlimit="10" stroke-linecap="round" stroke-linejoin="round"/>
<path d="M58.9224 11.5278C59.0687 10.9392 59.3557 10.3449 59.789 9.75639C60.6556 8.57351 61.9499 7.69072 63.3904 6.95214C67.4252 4.73639 72.0338 3.70355 76.6425 3.70355C81.2512 3.70355 85.8598 4.44214 90.3279 5.62505C92.4887 6.21361 94.9366 6.9522 95.9438 9.02372C96.5178 10.0566 96.6641 11.3895 96.6641 12.5666C96.8104 19.8023 95.0772 28.9661 88.741 33.3976C87.5874 34.1361 86.2931 34.8747 84.8526 35.169C76.7831 37.3847 67.7127 34.1361 62.9574 27.1946C61.2299 24.6846 59.9299 21.7303 59.069 18.6259C58.7764 16.3986 58.3431 13.7443 58.9227 11.5285L58.9224 11.5278Z" stroke="#213E4C" stroke-width="0.568" stroke-miterlimit="10" stroke-linecap="round" stroke-linejoin="round"/>
<path d="M45.5235 11.5278C45.3772 10.9392 45.0902 10.3449 44.6569 9.75639C43.7903 8.57351 42.4961 7.69072 41.0555 6.95214C37.0207 4.73639 32.4121 3.70355 27.8034 3.70355C23.1948 3.70355 18.5861 4.44214 14.118 5.62505C11.9572 6.21361 9.50935 6.9522 8.50211 9.02372C7.92813 10.0566 7.78182 11.3895 7.78182 12.5666C7.63552 19.8023 9.36875 28.9661 15.7049 33.3976C16.8585 34.1361 18.1528 34.8747 19.5933 35.169C27.6628 37.3847 36.7332 34.1361 41.4885 27.1946C43.2161 24.6846 44.516 21.7303 45.3769 18.6259C45.8102 16.3986 46.2435 13.7443 45.5232 11.5285L45.5235 11.5278Z" stroke="#213E4C" stroke-width="0.568" stroke-miterlimit="10" stroke-linecap="round" stroke-linejoin="round"/>
</svg>