<svg width="48" height="48" viewBox="0 0 45 44" fill="none" xmlns="http://www.w3.org/2000/svg">
<path fill-rule="evenodd" clip-rule="evenodd" d="M12.2272 41.5766C11.7658 41.5766 11.3913 41.1961 11.3913 40.7272V9.6873C11.3913 9.21845 11.7658 8.83794 12.2272 8.83794C12.6886 8.83794 13.0631 9.21845 13.0631 9.6873V40.7272C13.0631 41.1961 12.6886 41.5766 12.2272 41.5766Z" fill="#213E4C"/>
<path fill-rule="evenodd" clip-rule="evenodd" d="M12.2274 16.7883C12.0134 16.7883 11.7998 16.7055 11.6364 16.5395C11.31 16.2078 11.31 15.6701 11.6364 15.3385L14.977 11.9436C15.303 11.6119 15.8325 11.6119 16.1589 11.9436C16.4853 12.2752 16.4853 12.8129 16.1589 13.1446L12.8184 16.5395C12.6554 16.7055 12.4414 16.7883 12.2274 16.7883Z" fill="#213E4C"/>
<path fill-rule="evenodd" clip-rule="evenodd" d="M12.2272 22.5887C12.0133 22.5887 11.7993 22.5059 11.6363 22.3398L8.2957 18.9449C7.96929 18.6133 7.96929 18.0756 8.2957 17.7439C8.62211 17.4123 9.15164 17.4123 9.47763 17.7439L12.8182 21.1388C13.1446 21.4705 13.1446 22.0082 12.8182 22.3398C12.6548 22.5059 12.4412 22.5887 12.2272 22.5887Z" fill="#213E4C"/>
<path fill-rule="evenodd" clip-rule="evenodd" d="M12.2274 28.3891C12.0134 28.3891 11.7994 28.3063 11.6364 28.1403C11.31 27.8086 11.31 27.2709 11.6364 26.9393L14.977 23.5452C15.3034 23.2131 15.8329 23.2131 16.1589 23.5452C16.4853 23.8769 16.4853 24.4145 16.1589 24.7462L12.8184 28.1403C12.6549 28.3063 12.4414 28.3891 12.2274 28.3891Z" fill="#213E4C"/>
<path fill-rule="evenodd" clip-rule="evenodd" d="M12.2277 2.04724C6.77529 2.04724 2.33972 6.5548 2.33972 12.0952V22.3309C2.33972 27.8708 6.77529 32.378 12.2277 32.378C17.6797 32.378 22.1153 27.8708 22.1153 22.3309V12.0952C22.1153 6.5548 17.6797 2.04724 12.2277 2.04724ZM12.2277 34.0767C5.85374 34.0767 0.667969 28.8077 0.667969 22.3309V12.0952C0.667969 5.61795 5.85374 0.348511 12.2277 0.348511C18.6017 0.348511 23.787 5.61795 23.787 12.0952V22.3309C23.787 28.8077 18.6017 34.0767 12.2277 34.0767Z" fill="#213E4C"/>
<path fill-rule="evenodd" clip-rule="evenodd" d="M35.5179 41.5766C35.0565 41.5766 34.6821 41.1961 34.6821 40.7272V16.7039C34.6821 16.2346 35.0565 15.8545 35.5179 15.8545C35.9793 15.8545 36.3538 16.2346 36.3538 16.7039V40.7272C36.3538 41.1961 35.9793 41.5766 35.5179 41.5766Z" fill="#213E4C"/>
<path fill-rule="evenodd" clip-rule="evenodd" d="M35.5181 22.169C35.3041 22.169 35.0902 22.0862 34.9272 21.9202C34.6007 21.5885 34.6007 21.0509 34.9272 20.7192L37.5171 18.0874C37.8431 17.7553 38.3731 17.7553 38.699 18.0874C39.0259 18.4187 39.0259 18.9568 38.699 19.2884L36.1091 21.9202C35.9461 22.0862 35.7321 22.169 35.5181 22.169Z" fill="#213E4C"/>
<path fill-rule="evenodd" clip-rule="evenodd" d="M35.518 26.6663C35.304 26.6663 35.09 26.5835 34.9266 26.4175L32.3366 23.7849C32.0102 23.4532 32.0102 22.9151 32.3371 22.5834C32.6639 22.2522 33.193 22.2522 33.519 22.5839L36.1094 25.2165C36.4354 25.5481 36.4353 26.0858 36.1089 26.4179C35.9455 26.5835 35.732 26.6663 35.518 26.6663Z" fill="#213E4C"/>
<path fill-rule="evenodd" clip-rule="evenodd" d="M35.5179 31.1628C35.3039 31.1628 35.0899 31.08 34.9265 30.9139C34.6005 30.5822 34.6005 30.0446 34.9269 29.7125L37.5169 27.0816C37.8437 26.7504 38.3732 26.7504 38.6992 27.082C39.0256 27.4137 39.0256 27.9513 38.6988 28.283L36.1089 30.9144C35.9454 31.08 35.7319 31.1628 35.5179 31.1628Z" fill="#213E4C"/>
<path fill-rule="evenodd" clip-rule="evenodd" d="M35.5182 10.9299C31.3945 10.9299 28.0397 14.3388 28.0397 18.5295V26.4647C28.0397 30.6546 31.3945 34.0635 35.5182 34.0635C39.6416 34.0635 42.9964 30.6546 42.9964 26.4647V18.5295C42.9964 14.3388 39.6416 10.9299 35.5182 10.9299ZM35.5182 35.7622C30.4729 35.7622 26.3679 31.5914 26.3679 26.4647V18.5295C26.3679 13.4024 30.4729 9.23113 35.5182 9.23113C40.5636 9.23113 44.6681 13.4024 44.6681 18.5295V26.4647C44.6681 31.5914 40.5636 35.7622 35.5182 35.7622Z" fill="#213E4C"/>
<path fill-rule="evenodd" clip-rule="evenodd" d="M4.10257 43.6515C3.74816 43.6515 3.41966 43.4209 3.3064 43.0595C3.16639 42.6128 3.40922 42.135 3.8493 41.9927C8.88336 40.3636 15.6005 39.4663 22.7627 39.4663C29.822 39.4663 36.4697 40.3416 41.4821 41.9303C41.9226 42.07 42.1687 42.5461 42.0308 42.9941C41.8933 43.4417 41.4252 43.6923 40.9843 43.5522C36.1287 42.0127 29.6578 41.165 22.7627 41.165C15.768 41.165 9.23109 42.0339 4.35626 43.6112C4.27226 43.6384 4.18658 43.6515 4.10257 43.6515Z" fill="#213E4C"/>
</svg>
