<svg width="20" height="20" viewBox="0 0 20 20" fill="none" xmlns="http://www.w3.org/2000/svg">
<path fill-rule="evenodd" clip-rule="evenodd" d="M12.4442 3.05705C12.0517 3.05685 11.664 3.16097 11.3092 3.36189C10.9543 3.56281 10.6412 3.85552 10.3923 4.21889C10.1435 4.58227 9.96514 5.00723 9.87018 5.46311C9.77523 5.919 9.76603 6.39443 9.84324 6.85509C9.86983 7.0147 9.86438 7.17958 9.82736 7.33619C9.79033 7.49279 9.72278 7.63664 9.63026 7.75591C9.53774 7.87518 9.42289 7.96647 9.29515 8.02227C9.16741 8.07806 9.03043 8.09678 8.89547 8.07688C7.04783 7.80522 5.3061 6.89618 3.88254 5.46052C3.90917 6.07964 4.08876 6.73784 4.47801 7.4269L5.06145 8.45946L4.10337 8.94797L3.91863 9.04258C4.05611 9.23079 4.22109 9.42311 4.40583 9.61337C4.65279 9.86637 4.91406 10.0987 5.18776 10.3086L5.19721 10.3158H5.19807L6.52821 11.2815L5.1362 12.1145C5.06746 12.1557 4.99872 12.1927 4.92998 12.2256C5.22929 12.5233 5.55903 12.7742 5.91126 12.9723L7.10563 13.648L6.10545 14.6805C5.55982 15.2441 5.01075 15.6647 4.29842 15.8869C5.39092 16.5834 6.61022 16.9462 7.84803 16.9431C11.9776 16.9431 15.303 12.999 15.303 8.16635V7.63156L15.6682 7.32406C16.2387 6.8448 16.6417 6.19688 16.9304 5.45537H15.0744L14.8407 4.86916C14.6255 4.32683 14.2862 3.86869 13.8621 3.54793C13.4381 3.22717 12.9467 3.05696 12.4451 3.05705H12.4442ZM2.75175 10.5647C2.67066 10.6758 2.61051 10.8066 2.57537 10.948C2.54023 11.0894 2.53093 11.2382 2.5481 11.3843C2.6452 12.2081 3.05679 12.9178 3.5122 13.4597C3.63593 13.6068 3.76826 13.7477 3.90746 13.8824L3.84301 13.903C3.42971 14.0264 2.87204 14.0521 1.94318 13.9441C1.76777 13.9235 1.59131 13.968 1.43772 14.0715C1.28414 14.175 1.16086 14.3325 1.0846 14.5227C1.00834 14.7129 0.982784 14.9265 1.01141 15.1347C1.04003 15.3428 1.12144 15.5354 1.2446 15.6863C2.10453 16.7383 3.13179 17.5736 4.26579 18.1427C5.39978 18.7118 6.61753 19.0033 7.84717 19C12.7561 19 16.7826 14.4378 17.0104 8.68057C18.1188 7.56677 18.673 6.05804 18.972 4.68713C19.0053 4.53497 19.0089 4.37571 18.9827 4.22161C18.9565 4.0675 18.9011 3.92264 18.8207 3.79818C18.7404 3.67373 18.6373 3.57298 18.5193 3.50368C18.4014 3.43439 18.2717 3.3984 18.1403 3.39849H16.1184C15.6239 2.47939 14.9012 1.76886 14.0518 1.36673C13.2025 0.964601 12.2692 0.891091 11.3832 1.15653C10.4971 1.42196 9.70283 2.01301 9.11191 2.8466C8.52098 3.6802 8.16313 4.71445 8.08863 5.80402C6.50471 5.31052 5.08751 4.24161 4.03205 2.7444C3.93858 2.61212 3.8187 2.51025 3.68355 2.44824C3.54839 2.38623 3.40234 2.36608 3.25895 2.38968C3.11555 2.41327 2.97946 2.47984 2.8633 2.58321C2.74714 2.68657 2.65468 2.82338 2.5945 2.98094C2.07379 4.34054 1.97412 5.90789 2.55498 7.50198L2.35391 7.60482C2.1615 7.70295 2.0056 7.88171 1.91543 8.10758C1.82526 8.33346 1.80702 8.59094 1.86413 8.83175C2.02395 9.5023 2.38312 10.0947 2.75089 10.5647H2.75175Z" fill="white" stroke="#213E4C" stroke-width="0.5"/>
</svg>
