<svg width="93" height="92" viewBox="0 0 93 92" fill="none" xmlns="http://www.w3.org/2000/svg">
<path d="M0.399902 91.8001H92.4999L90.3956 85.0939H2.54177L0.399902 91.8001Z" fill="#FFFFFF"/>
<path d="M85.1349 69.7112L67.8873 15.2659C67.8497 15.1143 63.1151 0.300049 46.4311 0.300049C29.7096 0.300049 25.0125 15.1143 24.9749 15.2659L7.72732 69.7112H18.6996L24.0731 52.6237H68.7891L74.1626 69.7112H85.1349ZM27.8308 41.4845L34.9327 18.7137C36.1352 15.3038 37.9764 10.1889 46.4687 10.1889C46.5814 10.1889 49.55 10.151 51.2785 10.9087C55.7501 12.4243 57.1028 16.2131 57.9671 18.6758L65.0691 41.4466H27.8308V41.4845Z" fill="#FFFFFF"/>
</svg>
